<?xml version="1.0" standalone="no"?>
<!DOCTYPE svg PUBLIC "-//W3C//DTD SVG 20010904//EN"
 "http://www.w3.org/TR/2001/REC-SVG-20010904/DTD/svg10.dtd">
<svg version="1.0" xmlns="http://www.w3.org/2000/svg"
 width="895.000000pt" height="895.000000pt" viewBox="0 0 895.000000 895.000000"
 preserveAspectRatio="xMidYMid meet">
<metadata>
Created by potrace 1.14, written by Peter Selinger 2001-2017
</metadata>
<g transform="translate(0.000000,895.000000) scale(0.100000,-0.100000)"
fill="#000000" stroke="none">
<path d="M1469 8778 c-193 -161 -345 -366 -444 -597 -34 -81 -79 -224 -89
-286 -5 -34 -14 -94 -22 -145 -6 -42 -6 -286 0 -317 3 -13 2 -23 -2 -23 -11 1
-88 132 -132 227 -22 48 -49 106 -60 128 l-19 40 5 -109 c9 -185 25 -304 64
-471 6 -27 14 -59 16 -71 7 -39 91 -278 123 -354 81 -190 218 -420 389 -650
38 -52 68 -97 66 -99 -5 -5 -126 73 -198 129 -135 103 -156 120 -173 137 -11
10 -40 35 -66 57 -26 21 -63 54 -83 74 -19 19 -38 32 -41 28 -18 -18 144 -291
247 -416 59 -70 229 -240 242 -240 20 0 5 -19 -25 -31 -17 -7 -34 -16 -37 -19
-3 -4 -30 -20 -60 -36 -214 -113 -471 -328 -566 -472 -21 -31 -45 -68 -54 -82
-19 -28 -80 -173 -80 -189 0 -9 161 67 187 89 7 5 14 10 16 10 3 0 22 8 43 17
22 9 41 17 44 18 3 0 15 6 27 13 25 14 199 82 223 87 8 2 32 11 53 20 46 19
44 15 -28 -70 -91 -108 -233 -342 -272 -450 -43 -115 -54 -150 -72 -216 -48
-181 -67 -423 -48 -598 6 -48 17 -83 17 -52 0 19 85 193 132 269 81 132 195
266 333 391 59 53 224 165 232 158 2 -3 -17 -25 -43 -49 -98 -90 -185 -182
-244 -258 -19 -25 -38 -47 -41 -50 -11 -10 -116 -165 -142 -210 -94 -163 -164
-364 -182 -523 -8 -61 -17 -86 -47 -123 -50 -60 -86 -121 -118 -201 -19 -46
-31 -85 -28 -89 5 -5 190 130 256 187 23 19 297 201 312 207 8 3 21 12 28 19
35 34 37 11 15 -137 -10 -62 -9 -413 0 -480 4 -30 10 -73 13 -95 3 -22 7 -48
10 -58 4 -11 7 -29 9 -40 9 -77 79 -292 131 -406 29 -62 92 -181 139 -260 15
-26 88 -124 107 -145 10 -11 18 -23 18 -28 0 -4 5 -8 11 -8 6 0 8 9 4 21 -4
12 -9 29 -10 38 -2 9 -4 16 -5 16 -1 0 -3 9 -4 20 -1 11 -6 38 -11 60 -15 73
-16 99 -20 305 -1 113 1 234 6 270 5 36 11 81 13 102 3 20 8 47 11 60 3 12 7
38 9 56 7 63 16 45 17 -34 2 -106 12 -236 25 -297 2 -12 7 -38 10 -57 7 -43
15 -83 37 -175 69 -289 224 -603 410 -835 63 -78 229 -247 285 -290 18 -14 45
-35 60 -48 42 -35 235 -163 239 -158 3 2 -23 50 -57 106 -77 128 -161 302
-201 418 -40 117 -86 305 -93 382 -2 14 -5 36 -9 50 -3 14 -9 48 -12 75 -7 66
-15 117 -20 133 -3 7 -1 11 4 7 5 -3 12 -20 16 -38 19 -90 99 -313 159 -437
162 -340 389 -614 697 -843 28 -21 248 -157 253 -157 4 0 144 -63 201 -90 40
-19 135 -49 135 -42 0 4 -19 27 -41 52 -110 121 -257 335 -346 500 -47 87
-133 283 -163 370 -7 19 -16 44 -21 55 -4 11 -18 52 -30 90 -11 39 -27 88 -34
110 -7 22 -16 56 -20 75 -7 33 -4 31 32 -25 123 -188 345 -427 653 -705 329
-297 491 -511 620 -815 18 -44 37 -84 42 -89 4 -6 8 -16 8 -23 0 -7 9 -32 19
-56 11 -23 22 -52 26 -64 9 -33 21 -28 33 15 29 104 103 275 183 418 24 44
128 204 142 220 7 7 26 30 42 51 48 61 114 132 200 212 130 124 147 140 224
209 134 120 367 355 431 435 34 43 89 117 121 164 32 48 59 83 59 78 0 -31
-126 -406 -165 -492 -8 -17 -15 -36 -15 -41 0 -16 -98 -209 -153 -302 -79
-132 -280 -403 -322 -432 -5 -4 -7 -10 -3 -13 10 -11 255 93 369 156 69 39
208 128 227 146 7 7 17 13 20 13 4 0 18 10 32 23 14 12 46 39 71 59 103 82
293 288 359 388 8 12 22 32 31 44 93 122 226 398 284 586 13 41 32 104 43 140
17 56 20 59 17 25 -9 -107 -23 -209 -50 -350 -45 -232 -163 -515 -302 -723
-23 -34 -37 -62 -31 -62 14 0 172 100 176 111 2 5 10 9 18 9 8 0 14 5 14 10 0
6 5 10 11 10 6 0 17 6 24 13 7 6 35 30 62 51 55 46 245 235 286 286 100 126
240 369 310 540 25 61 84 235 93 272 2 10 6 28 10 40 13 54 23 107 29 146 3
17 8 49 11 70 9 60 16 190 15 296 0 55 1 97 4 95 4 -4 17 -84 40 -229 30 -198
21 -527 -21 -705 -20 -87 -18 -93 19 -44 144 189 251 394 320 609 11 36 22 70
23 75 1 6 12 50 23 99 12 49 24 106 26 125 3 20 7 47 10 61 25 126 20 503 -8
643 -4 21 22 16 73 -16 30 -18 66 -40 79 -48 14 -8 30 -18 35 -22 6 -4 63 -45
126 -89 63 -45 157 -115 208 -155 52 -40 98 -73 102 -73 26 0 -53 173 -125
275 -23 33 -45 74 -49 90 -7 31 -8 39 -22 115 -10 57 -7 45 -28 115 -85 289
-229 518 -488 779 -71 71 -127 131 -125 133 4 4 164 -106 210 -145 116 -98
337 -346 337 -379 0 -3 6 -14 14 -22 22 -25 126 -234 126 -253 0 -17 19 -26
21 -10 16 104 12 366 -7 467 -51 276 -128 473 -272 690 -36 55 -68 102 -71
105 -21 18 -92 112 -88 116 4 5 139 -40 168 -56 9 -4 56 -25 104 -45 95 -39
250 -114 303 -147 18 -11 36 -18 39 -15 17 17 -108 261 -176 341 -57 68 -171
174 -251 234 -47 34 -89 66 -95 70 -32 24 -146 92 -155 92 -5 0 -10 3 -10 8 0
4 -32 23 -70 42 l-70 35 101 100 c112 110 193 205 259 305 47 71 145 258 139
265 -3 2 -23 -13 -46 -33 -79 -71 -99 -87 -193 -163 -52 -41 -124 -95 -160
-120 -36 -24 -67 -46 -70 -49 -3 -3 -16 -11 -30 -19 -14 -8 -36 -21 -50 -30
-31 -21 -29 -16 70 119 75 103 180 257 180 266 0 2 15 27 33 56 87 137 241
498 272 638 2 8 11 44 20 80 21 82 38 172 51 275 3 28 8 61 10 75 2 14 6 75 8
135 5 102 4 108 -9 78 -8 -18 -16 -38 -17 -44 -5 -23 -80 -174 -118 -239 -68
-116 -65 -118 -63 52 1 85 -2 174 -7 198 -4 25 -11 66 -14 92 -4 26 -9 53 -11
60 -2 7 -6 24 -9 38 -18 104 -101 307 -177 435 -50 84 -54 90 -134 189 -75 93
-275 282 -275 259 0 -4 16 -52 35 -105 34 -96 68 -221 79 -288 3 -19 8 -45 10
-57 11 -55 20 -166 20 -258 -1 -94 -11 -222 -19 -236 -2 -3 -7 -19 -9 -36 -11
-59 -59 -189 -103 -278 -83 -167 -270 -398 -316 -390 -12 2 -40 6 -62 9 -40 5
-70 10 -135 23 -19 4 -42 8 -50 9 -72 9 -329 86 -505 152 -243 91 -441 164
-450 166 -5 2 -48 15 -95 30 -47 15 -96 30 -109 32 -14 3 -28 7 -33 10 -4 3
-17 7 -28 10 -23 5 -30 6 -125 29 -126 30 -150 35 -175 39 -14 3 -36 8 -50 11
-25 5 -85 15 -130 20 -14 2 -25 4 -25 5 0 1 -13 3 -30 5 -16 1 -57 6 -90 10
-33 4 -73 9 -90 11 -150 18 -632 25 -770 11 -33 -4 -82 -9 -110 -12 -122 -12
-180 -19 -240 -31 -11 -3 -33 -6 -50 -9 -27 -4 -93 -16 -165 -30 -23 -4 -210
-49 -252 -60 -10 -3 -26 -7 -35 -9 -24 -6 -184 -56 -203 -63 -20 -8 -20 -8
-55 -18 -16 -4 -34 -10 -40 -14 -5 -3 -14 -6 -20 -7 -10 -3 -358 -129 -385
-141 -8 -3 -17 -7 -20 -8 -3 0 -54 -17 -115 -37 -132 -44 -271 -81 -380 -104
-44 -9 -89 -18 -100 -20 -11 -2 -33 -6 -50 -9 -16 -2 -46 -7 -66 -10 -35 -6
-39 -3 -108 72 -78 84 -197 254 -232 331 -48 103 -62 140 -84 213 -13 41 -26
98 -30 125 -4 27 -8 60 -11 74 -11 74 -3 325 11 380 3 8 7 33 10 55 3 22 10
54 16 71 5 17 11 40 14 50 13 64 68 217 95 267 18 30 -6 19 -71 -35z"/>
</g>
</svg>
